<svg id="visual" viewBox="0 0 960 540" width="960" height="540" xmlns="http://www.w3.org/2000/svg" xmlns:xlink="http://www.w3.org/1999/xlink" version="1.1"><rect x="0" y="0" width="960" height="540" fill="#090213"></rect><path d="M0 281L20 274C40 267 80 253 120 261.2C160 269.3 200 299.7 240 306.5C280 313.3 320 296.7 360 295.2C400 293.7 440 307.3 480 307.3C520 307.3 560 293.7 600 287.8C640 282 680 284 720 289.7C760 295.3 800 304.7 840 300C880 295.3 920 276.7 940 267.3L960 258L960 541L940 541C920 541 880 541 840 541C800 541 760 541 720 541C680 541 640 541 600 541C560 541 520 541 480 541C440 541 400 541 360 541C320 541 280 541 240 541C200 541 160 541 120 541C80 541 40 541 20 541L0 541Z" fill="#0d031c"></path><path d="M0 338L20 334.7C40 331.3 80 324.7 120 330.2C160 335.7 200 353.3 240 363.8C280 374.3 320 377.7 360 367.5C400 357.3 440 333.7 480 317.7C520 301.7 560 293.3 600 291.8C640 290.3 680 295.7 720 307.3C760 319 800 337 840 350.8C880 364.7 920 374.3 940 379.2L960 384L960 541L940 541C920 541 880 541 840 541C800 541 760 541 720 541C680 541 640 541 600 541C560 541 520 541 480 541C440 541 400 541 360 541C320 541 280 541 240 541C200 541 160 541 120 541C80 541 40 541 20 541L0 541Z" fill="#13072a"></path><path d="M0 413L20 399.3C40 385.7 80 358.3 120 350.5C160 342.7 200 354.3 240 352C280 349.7 320 333.3 360 342C400 350.7 440 384.3 480 388.7C520 393 560 368 600 355.2C640 342.3 680 341.7 720 342.2C760 342.7 800 344.3 840 357.2C880 370 920 394 940 406L960 418L960 541L940 541C920 541 880 541 840 541C800 541 760 541 720 541C680 541 640 541 600 541C560 541 520 541 480 541C440 541 400 541 360 541C320 541 280 541 240 541C200 541 160 541 120 541C80 541 40 541 20 541L0 541Z" fill="#160b38"></path><path d="M0 441L20 436.3C40 431.7 80 422.3 120 422C160 421.7 200 430.3 240 429.3C280 428.3 320 417.7 360 413.2C400 408.7 440 410.3 480 415.2C520 420 560 428 600 421.3C640 414.7 680 393.3 720 394.8C760 396.3 800 420.7 840 430.5C880 440.3 920 435.7 940 433.3L960 431L960 541L940 541C920 541 880 541 840 541C800 541 760 541 720 541C680 541 640 541 600 541C560 541 520 541 480 541C440 541 400 541 360 541C320 541 280 541 240 541C200 541 160 541 120 541C80 541 40 541 20 541L0 541Z" fill="#1c0b46"></path><path d="M0 447L20 447.7C40 448.3 80 449.7 120 452.2C160 454.7 200 458.3 240 464C280 469.7 320 477.3 360 472.3C400 467.3 440 449.7 480 445.5C520 441.3 560 450.7 600 450.8C640 451 680 442 720 446C760 450 800 467 840 467.5C880 468 920 452 940 444L960 436L960 541L940 541C920 541 880 541 840 541C800 541 760 541 720 541C680 541 640 541 600 541C560 541 520 541 480 541C440 541 400 541 360 541C320 541 280 541 240 541C200 541 160 541 120 541C80 541 40 541 20 541L0 541Z" fill="#240854"></path><path d="M0 479L20 479.7C40 480.3 80 481.7 120 481.5C160 481.3 200 479.7 240 484C280 488.3 320 498.7 360 504.5C400 510.3 440 511.7 480 509.3C520 507 560 501 600 501C640 501 680 507 720 510.2C760 513.3 800 513.7 840 511.8C880 510 920 506 940 504L960 502L960 541L940 541C920 541 880 541 840 541C800 541 760 541 720 541C680 541 640 541 600 541C560 541 520 541 480 541C440 541 400 541 360 541C320 541 280 541 240 541C200 541 160 541 120 541C80 541 40 541 20 541L0 541Z" fill="#2e0262"></path></svg>