<svg id="visual" viewBox="0 0 960 540" width="960" height="540" xmlns="http://www.w3.org/2000/svg" xmlns:xlink="http://www.w3.org/1999/xlink" version="1.1"><rect x="0" y="0" width="960" height="540" fill="#090213"></rect><g fill="none" stroke="#34d609" stroke-width="3"><circle r="63" cx="386" cy="437"></circle><circle r="15" cx="863" cy="217"></circle><circle r="21" cx="303" cy="107"></circle><circle r="28" cx="77" cy="53"></circle><circle r="50" cx="155" cy="367"></circle><circle r="39" cx="283" cy="243"></circle><circle r="30" cx="551" cy="364"></circle><circle r="52" cx="465" cy="136"></circle><circle r="27" cx="882" cy="397"></circle><circle r="17" cx="627" cy="114"></circle><circle r="60" cx="543" cy="534"></circle><circle r="32" cx="751" cy="511"></circle><circle r="58" cx="682" cy="250"></circle><circle r="33" cx="16" cy="378"></circle><circle r="17" cx="826" cy="46"></circle><circle r="36" cx="216" cy="526"></circle><circle r="18" cx="409" cy="308"></circle><circle r="14" cx="718" cy="375"></circle><circle r="37" cx="913" cy="536"></circle><circle r="56" cx="949" cy="90"></circle><circle r="18" cx="204" cy="9"></circle><circle r="31" cx="51" cy="182"></circle><circle r="58" cx="85" cy="529"></circle><circle r="61" cx="519" cy="18"></circle><circle r="18" cx="178" cy="155"></circle></g></svg>