<svg id="visual" viewBox="0 0 960 540" width="960" height="540" xmlns="http://www.w3.org/2000/svg" xmlns:xlink="http://www.w3.org/1999/xlink" version="1.1"><rect x="0" y="0" width="960" height="540" fill="#090213"></rect><g fill="none" stroke="#80030e" stroke-width="3"><circle r="63" cx="179" cy="323"></circle><circle r="15" cx="553" cy="392"></circle><circle r="44" cx="767" cy="409"></circle><circle r="37" cx="403" cy="315"></circle><circle r="29" cx="110" cy="74"></circle><circle r="52" cx="843" cy="32"></circle><circle r="47" cx="877" cy="305"></circle><circle r="34" cx="577" cy="221"></circle><circle r="32" cx="948" cy="170"></circle><circle r="37" cx="290" cy="36"></circle><circle r="24" cx="24" cy="368"></circle><circle r="30" cx="883" cy="521"></circle><circle r="46" cx="120" cy="466"></circle><circle r="15" cx="311" cy="206"></circle><circle r="38" cx="426" cy="51"></circle><circle r="49" cx="708" cy="90"></circle><circle r="23" cx="724" cy="280"></circle><circle r="28" cx="436" cy="450"></circle><circle r="47" cx="553" cy="530"></circle><circle r="28" cx="709" cy="535"></circle><circle r="54" cx="276" cy="442"></circle><circle r="61" cx="585" cy="19"></circle><circle r="47" cx="69" cy="234"></circle><circle r="47" cx="2" cy="537"></circle></g></svg>