<svg id="visual" viewBox="0 0 960 540" width="960" height="540" xmlns="http://www.w3.org/2000/svg" xmlns:xlink="http://www.w3.org/1999/xlink" version="1.1"><rect x="0" y="0" width="960" height="540" fill="#090213"></rect><path d="M0 248L20 243.2C40 238.3 80 228.7 120 237C160 245.3 200 271.7 240 273.8C280 276 320 254 360 243.3C400 232.7 440 233.3 480 255.2C520 277 560 320 600 328.8C640 337.7 680 312.3 720 289C760 265.7 800 244.3 840 257.8C880 271.3 920 319.7 940 343.8L960 368L960 541L940 541C920 541 880 541 840 541C800 541 760 541 720 541C680 541 640 541 600 541C560 541 520 541 480 541C440 541 400 541 360 541C320 541 280 541 240 541C200 541 160 541 120 541C80 541 40 541 20 541L0 541Z" fill="#0d031c"></path><path d="M0 333L20 321.3C40 309.7 80 286.3 120 293.2C160 300 200 337 240 343.3C280 349.7 320 325.3 360 317.5C400 309.7 440 318.3 480 329.5C520 340.7 560 354.3 600 345C640 335.7 680 303.3 720 302.2C760 301 800 331 840 333C880 335 920 309 940 296L960 283L960 541L940 541C920 541 880 541 840 541C800 541 760 541 720 541C680 541 640 541 600 541C560 541 520 541 480 541C440 541 400 541 360 541C320 541 280 541 240 541C200 541 160 541 120 541C80 541 40 541 20 541L0 541Z" fill="#13072a"></path><path d="M0 401L20 396C40 391 80 381 120 366.3C160 351.7 200 332.3 240 337.8C280 343.3 320 373.7 360 383C400 392.3 440 380.7 480 370.2C520 359.7 560 350.3 600 348C640 345.7 680 350.3 720 351.3C760 352.3 800 349.7 840 360.2C880 370.7 920 394.3 940 406.2L960 418L960 541L940 541C920 541 880 541 840 541C800 541 760 541 720 541C680 541 640 541 600 541C560 541 520 541 480 541C440 541 400 541 360 541C320 541 280 541 240 541C200 541 160 541 120 541C80 541 40 541 20 541L0 541Z" fill="#160b38"></path><path d="M0 429L20 429.3C40 429.7 80 430.3 120 433C160 435.7 200 440.3 240 443.5C280 446.7 320 448.3 360 435.8C400 423.3 440 396.7 480 384C520 371.3 560 372.7 600 375C640 377.3 680 380.7 720 382.5C760 384.3 800 384.7 840 380.5C880 376.3 920 367.7 940 363.3L960 359L960 541L940 541C920 541 880 541 840 541C800 541 760 541 720 541C680 541 640 541 600 541C560 541 520 541 480 541C440 541 400 541 360 541C320 541 280 541 240 541C200 541 160 541 120 541C80 541 40 541 20 541L0 541Z" fill="#1c0b46"></path><path d="M0 437L20 432.7C40 428.3 80 419.7 120 422.7C160 425.7 200 440.3 240 442.2C280 444 320 433 360 436.7C400 440.3 440 458.7 480 456.5C520 454.3 560 431.7 600 431.2C640 430.7 680 452.3 720 453.5C760 454.7 800 435.3 840 431.7C880 428 920 440 940 446L960 452L960 541L940 541C920 541 880 541 840 541C800 541 760 541 720 541C680 541 640 541 600 541C560 541 520 541 480 541C440 541 400 541 360 541C320 541 280 541 240 541C200 541 160 541 120 541C80 541 40 541 20 541L0 541Z" fill="#240854"></path><path d="M0 457L20 462.2C40 467.3 80 477.7 120 486.2C160 494.7 200 501.3 240 495.8C280 490.3 320 472.7 360 468.7C400 464.7 440 474.3 480 481C520 487.7 560 491.3 600 487.5C640 483.7 680 472.3 720 470.8C760 469.3 800 477.7 840 478.8C880 480 920 474 940 471L960 468L960 541L940 541C920 541 880 541 840 541C800 541 760 541 720 541C680 541 640 541 600 541C560 541 520 541 480 541C440 541 400 541 360 541C320 541 280 541 240 541C200 541 160 541 120 541C80 541 40 541 20 541L0 541Z" fill="#2e0262"></path></svg>