<svg id="visual" viewBox="0 0 960 540" width="960" height="540" xmlns="http://www.w3.org/2000/svg" xmlns:xlink="http://www.w3.org/1999/xlink" version="1.1"><rect x="0" y="0" width="960" height="540" fill="#090213"></rect><path d="M663 540L657.2 532.5C651.3 525 639.7 510 629.3 495C619 480 610 465 622.7 450C635.3 435 669.7 420 687.8 405C706 390 708 375 709.2 360C710.3 345 710.7 330 693.7 315C676.7 300 642.3 285 633.8 270C625.3 255 642.7 240 639.5 225C636.3 210 612.7 195 597.2 180C581.7 165 574.3 150 567.8 135C561.3 120 555.7 105 571.2 90C586.7 75 623.3 60 627 45C630.7 30 601.3 15 586.7 7.5L572 0L960 0L960 7.5C960 15 960 30 960 45C960 60 960 75 960 90C960 105 960 120 960 135C960 150 960 165 960 180C960 195 960 210 960 225C960 240 960 255 960 270C960 285 960 300 960 315C960 330 960 345 960 360C960 375 960 390 960 405C960 420 960 435 960 450C960 465 960 480 960 495C960 510 960 525 960 532.5L960 540Z" fill="#37005c"></path><path d="M714 540L718 532.5C722 525 730 510 735.3 495C740.7 480 743.3 465 724.2 450C705 435 664 420 649 405C634 390 645 375 667.8 360C690.7 345 725.3 330 718.8 315C712.3 300 664.7 285 653.2 270C641.7 255 666.3 240 672.5 225C678.7 210 666.3 195 663.3 180C660.3 165 666.7 150 678.8 135C691 120 709 105 709.5 90C710 75 693 60 693 45C693 30 710 15 718.5 7.5L727 0L960 0L960 7.5C960 15 960 30 960 45C960 60 960 75 960 90C960 105 960 120 960 135C960 150 960 165 960 180C960 195 960 210 960 225C960 240 960 255 960 270C960 285 960 300 960 315C960 330 960 345 960 360C960 375 960 390 960 405C960 420 960 435 960 450C960 465 960 480 960 495C960 510 960 525 960 532.5L960 540Z" fill="#2d064c"></path><path d="M743 540L733.8 532.5C724.7 525 706.3 510 703.7 495C701 480 714 465 730.5 450C747 435 767 420 768.3 405C769.7 390 752.3 375 735.2 360C718 345 701 330 698.2 315C695.3 300 706.7 285 721.7 270C736.7 255 755.3 240 752.3 225C749.3 210 724.7 195 721.2 180C717.7 165 735.3 150 735.3 135C735.3 120 717.7 105 719.3 90C721 75 742 60 747.2 45C752.3 30 741.7 15 736.3 7.5L731 0L960 0L960 7.5C960 15 960 30 960 45C960 60 960 75 960 90C960 105 960 120 960 135C960 150 960 165 960 180C960 195 960 210 960 225C960 240 960 255 960 270C960 285 960 300 960 315C960 330 960 345 960 360C960 375 960 390 960 405C960 420 960 435 960 450C960 465 960 480 960 495C960 510 960 525 960 532.5L960 540Z" fill="#24093d"></path><path d="M850 540L838 532.5C826 525 802 510 790.8 495C779.7 480 781.3 465 777.3 450C773.3 435 763.7 420 771.5 405C779.3 390 804.7 375 805.8 360C807 345 784 330 772.8 315C761.7 300 762.3 285 758.7 270C755 255 747 240 760.2 225C773.3 210 807.7 195 822.2 180C836.7 165 831.3 150 827.5 135C823.7 120 821.3 105 817.2 90C813 75 807 60 793.3 45C779.7 30 758.3 15 747.7 7.5L737 0L960 0L960 7.5C960 15 960 30 960 45C960 60 960 75 960 90C960 105 960 120 960 135C960 150 960 165 960 180C960 195 960 210 960 225C960 240 960 255 960 270C960 285 960 300 960 315C960 330 960 345 960 360C960 375 960 390 960 405C960 420 960 435 960 450C960 465 960 480 960 495C960 510 960 525 960 532.5L960 540Z" fill="#1c092d"></path><path d="M816 540L825.2 532.5C834.3 525 852.7 510 852.8 495C853 480 835 465 824.2 450C813.3 435 809.7 420 818.5 405C827.3 390 848.7 375 859.5 360C870.3 345 870.7 330 871.5 315C872.3 300 873.7 285 868 270C862.3 255 849.7 240 841.7 225C833.7 210 830.3 195 823.7 180C817 165 807 150 804.7 135C802.3 120 807.7 105 820 90C832.3 75 851.7 60 849.2 45C846.7 30 822.3 15 810.2 7.5L798 0L960 0L960 7.5C960 15 960 30 960 45C960 60 960 75 960 90C960 105 960 120 960 135C960 150 960 165 960 180C960 195 960 210 960 225C960 240 960 255 960 270C960 285 960 300 960 315C960 330 960 345 960 360C960 375 960 390 960 405C960 420 960 435 960 450C960 465 960 480 960 495C960 510 960 525 960 532.5L960 540Z" fill="#16051f"></path><path d="M899 540L902.3 532.5C905.7 525 912.3 510 913 495C913.7 480 908.3 465 900.7 450C893 435 883 420 883.5 405C884 390 895 375 897.5 360C900 345 894 330 888.7 315C883.3 300 878.7 285 877 270C875.3 255 876.7 240 873.2 225C869.7 210 861.3 195 866.2 180C871 165 889 150 896.5 135C904 120 901 105 897.2 90C893.3 75 888.7 60 881.8 45C875 30 866 15 861.5 7.5L857 0L960 0L960 7.5C960 15 960 30 960 45C960 60 960 75 960 90C960 105 960 120 960 135C960 150 960 165 960 180C960 195 960 210 960 225C960 240 960 255 960 270C960 285 960 300 960 315C960 330 960 345 960 360C960 375 960 390 960 405C960 420 960 435 960 450C960 465 960 480 960 495C960 510 960 525 960 532.5L960 540Z" fill="#09010f"></path></svg>