<svg id="visual" viewBox="0 0 960 540" width="960" height="540" xmlns="http://www.w3.org/2000/svg" xmlns:xlink="http://www.w3.org/1999/xlink" version="1.1"><rect x="0" y="0" width="960" height="540" fill="#090213"></rect><g fill="none" stroke="#c3b315" stroke-width="3"><circle r="63" cx="940" cy="102"></circle><circle r="15" cx="843" cy="196"></circle><circle r="18" cx="367" cy="101"></circle><circle r="15" cx="512" cy="67"></circle><circle r="52" cx="91" cy="468"></circle><circle r="27" cx="709" cy="51"></circle><circle r="14" cx="214" cy="238"></circle><circle r="30" cx="43" cy="2"></circle><circle r="56" cx="478" cy="255"></circle><circle r="41" cx="631" cy="315"></circle><circle r="27" cx="296" cy="426"></circle><circle r="49" cx="954" cy="498"></circle><circle r="47" cx="236" cy="77"></circle><circle r="39" cx="501" cy="451"></circle><circle r="41" cx="684" cy="450"></circle><circle r="48" cx="770" cy="316"></circle><circle r="28" cx="160" cy="357"></circle><circle r="34" cx="77" cy="185"></circle><circle r="38" cx="612" cy="152"></circle><circle r="56" cx="817" cy="482"></circle><circle r="61" cx="947" cy="286"></circle><circle r="46" cx="22" cy="304"></circle><circle r="36" cx="835" cy="17"></circle><circle r="41" cx="348" cy="300"></circle><circle r="20" cx="363" cy="538"></circle></g></svg>