<svg id="visual" viewBox="0 0 675 900" width="675" height="900" xmlns="http://www.w3.org/2000/svg" xmlns:xlink="http://www.w3.org/1999/xlink" version="1.1"><rect x="0" y="0" width="675" height="900" fill="#090213"></rect><path d="M0 272L9.3 289.3C18.7 306.7 37.3 341.3 56.2 348.5C75 355.7 94 335.3 112.8 312C131.7 288.7 150.3 262.3 169 252.8C187.7 243.3 206.3 250.7 225 259.7C243.7 268.7 262.3 279.3 281.2 294.7C300 310 319 330 337.8 326C356.7 322 375.3 294 394 285.8C412.7 277.7 431.3 289.3 450 299C468.7 308.7 487.3 316.3 506.2 327.8C525 339.3 544 354.7 562.8 337.3C581.7 320 600.3 270 619 268.5C637.7 267 656.3 314 665.7 337.5L675 361L675 0L665.7 0C656.3 0 637.7 0 619 0C600.3 0 581.7 0 562.8 0C544 0 525 0 506.2 0C487.3 0 468.7 0 450 0C431.3 0 412.7 0 394 0C375.3 0 356.7 0 337.8 0C319 0 300 0 281.2 0C262.3 0 243.7 0 225 0C206.3 0 187.7 0 169 0C150.3 0 131.7 0 112.8 0C94 0 75 0 56.2 0C37.3 0 18.7 0 9.3 0L0 0Z" fill="#37005c"></path><path d="M0 221L9.3 239.5C18.7 258 37.3 295 56.2 298C75 301 94 270 112.8 261.8C131.7 253.7 150.3 268.3 169 269.8C187.7 271.3 206.3 259.7 225 264.7C243.7 269.7 262.3 291.3 281.2 282.3C300 273.3 319 233.7 337.8 235.3C356.7 237 375.3 280 394 292.8C412.7 305.7 431.3 288.3 450 283.3C468.7 278.3 487.3 285.7 506.2 276.7C525 267.7 544 242.3 562.8 235.8C581.7 229.3 600.3 241.7 619 250.5C637.7 259.3 656.3 264.7 665.7 267.3L675 270L675 0L665.7 0C656.3 0 637.7 0 619 0C600.3 0 581.7 0 562.8 0C544 0 525 0 506.2 0C487.3 0 468.7 0 450 0C431.3 0 412.7 0 394 0C375.3 0 356.7 0 337.8 0C319 0 300 0 281.2 0C262.3 0 243.7 0 225 0C206.3 0 187.7 0 169 0C150.3 0 131.7 0 112.8 0C94 0 75 0 56.2 0C37.3 0 18.7 0 9.3 0L0 0Z" fill="#2d064c"></path><path d="M0 155L9.3 172.7C18.7 190.3 37.3 225.7 56.2 236.3C75 247 94 233 112.8 220C131.7 207 150.3 195 169 194.5C187.7 194 206.3 205 225 207.5C243.7 210 262.3 204 281.2 205.5C300 207 319 216 337.8 213.3C356.7 210.7 375.3 196.3 394 200.8C412.7 205.3 431.3 228.7 450 233.8C468.7 239 487.3 226 506.2 222C525 218 544 223 562.8 222C581.7 221 600.3 214 619 220.7C637.7 227.3 656.3 247.7 665.7 257.8L675 268L675 0L665.7 0C656.3 0 637.7 0 619 0C600.3 0 581.7 0 562.8 0C544 0 525 0 506.2 0C487.3 0 468.7 0 450 0C431.3 0 412.7 0 394 0C375.3 0 356.7 0 337.8 0C319 0 300 0 281.2 0C262.3 0 243.7 0 225 0C206.3 0 187.7 0 169 0C150.3 0 131.7 0 112.8 0C94 0 75 0 56.2 0C37.3 0 18.7 0 9.3 0L0 0Z" fill="#24093d"></path><path d="M0 105L9.3 108C18.7 111 37.3 117 56.2 122.3C75 127.7 94 132.3 112.8 142.3C131.7 152.3 150.3 167.7 169 167.7C187.7 167.7 206.3 152.3 225 142C243.7 131.7 262.3 126.3 281.2 123.2C300 120 319 119 337.8 131.2C356.7 143.3 375.3 168.7 394 179.2C412.7 189.7 431.3 185.3 450 174.3C468.7 163.3 487.3 145.7 506.2 146.7C525 147.7 544 167.3 562.8 181.3C581.7 195.3 600.3 203.7 619 206.5C637.7 209.3 656.3 206.7 665.7 205.3L675 204L675 0L665.7 0C656.3 0 637.7 0 619 0C600.3 0 581.7 0 562.8 0C544 0 525 0 506.2 0C487.3 0 468.7 0 450 0C431.3 0 412.7 0 394 0C375.3 0 356.7 0 337.8 0C319 0 300 0 281.2 0C262.3 0 243.7 0 225 0C206.3 0 187.7 0 169 0C150.3 0 131.7 0 112.8 0C94 0 75 0 56.2 0C37.3 0 18.7 0 9.3 0L0 0Z" fill="#1c092d"></path><path d="M0 83L9.3 85.8C18.7 88.7 37.3 94.3 56.2 103.3C75 112.3 94 124.7 112.8 129.7C131.7 134.7 150.3 132.3 169 135.8C187.7 139.3 206.3 148.7 225 146.2C243.7 143.7 262.3 129.3 281.2 118.7C300 108 319 101 337.8 95.3C356.7 89.7 375.3 85.3 394 92C412.7 98.7 431.3 116.3 450 120.5C468.7 124.7 487.3 115.3 506.2 116.8C525 118.3 544 130.7 562.8 128.7C581.7 126.7 600.3 110.3 619 99.7C637.7 89 656.3 84 665.7 81.5L675 79L675 0L665.7 0C656.3 0 637.7 0 619 0C600.3 0 581.7 0 562.8 0C544 0 525 0 506.2 0C487.3 0 468.7 0 450 0C431.3 0 412.7 0 394 0C375.3 0 356.7 0 337.8 0C319 0 300 0 281.2 0C262.3 0 243.7 0 225 0C206.3 0 187.7 0 169 0C150.3 0 131.7 0 112.8 0C94 0 75 0 56.2 0C37.3 0 18.7 0 9.3 0L0 0Z" fill="#16051f"></path><path d="M0 37L9.3 47.5C18.7 58 37.3 79 56.2 88C75 97 94 94 112.8 90C131.7 86 150.3 81 169 75.8C187.7 70.7 206.3 65.3 225 69.3C243.7 73.3 262.3 86.7 281.2 82C300 77.3 319 54.7 337.8 53.7C356.7 52.7 375.3 73.3 394 78C412.7 82.7 431.3 71.3 450 69.5C468.7 67.7 487.3 75.3 506.2 74.3C525 73.3 544 63.7 562.8 61.8C581.7 60 600.3 66 619 68.2C637.7 70.3 656.3 68.7 665.7 67.8L675 67L675 0L665.7 0C656.3 0 637.7 0 619 0C600.3 0 581.7 0 562.8 0C544 0 525 0 506.2 0C487.3 0 468.7 0 450 0C431.3 0 412.7 0 394 0C375.3 0 356.7 0 337.8 0C319 0 300 0 281.2 0C262.3 0 243.7 0 225 0C206.3 0 187.7 0 169 0C150.3 0 131.7 0 112.8 0C94 0 75 0 56.2 0C37.3 0 18.7 0 9.3 0L0 0Z" fill="#09010f"></path></svg>