<svg id="visual" viewBox="0 0 675 900" width="675" height="900" xmlns="http://www.w3.org/2000/svg" xmlns:xlink="http://www.w3.org/1999/xlink" version="1.1"><rect x="0" y="0" width="675" height="900" fill="#090213"></rect><g fill="none" stroke="#37005c" stroke-width="4"><circle r="68" cx="116" cy="839"></circle><circle r="16" cx="5" cy="520"></circle><circle r="44" cx="80" cy="213"></circle><circle r="32" cx="469" cy="613"></circle><circle r="40" cx="185" cy="5"></circle><circle r="54" cx="569" cy="141"></circle><circle r="64" cx="638" cy="590"></circle><circle r="25" cx="221" cy="277"></circle><circle r="16" cx="408" cy="308"></circle><circle r="58" cx="9" cy="333"></circle><circle r="31" cx="252" cy="415"></circle><circle r="34" cx="624" cy="327"></circle><circle r="46" cx="648" cy="847"></circle><circle r="34" cx="499" cy="877"></circle><circle r="59" cx="410" cy="122"></circle><circle r="28" cx="400" cy="765"></circle><circle r="35" cx="476" cy="455"></circle><circle r="33" cx="223" cy="701"></circle><circle r="55" cx="288" cy="861"></circle><circle r="32" cx="22" cy="732"></circle><circle r="21" cx="272" cy="565"></circle><circle r="44" cx="46" cy="32"></circle><circle r="58" cx="509" cy="11"></circle><circle r="29" cx="560" cy="738"></circle><circle r="44" cx="668" cy="12"></circle></g></svg>