<svg id="visual" viewBox="0 0 960 540" width="960" height="540" xmlns="http://www.w3.org/2000/svg" xmlns:xlink="http://www.w3.org/1999/xlink" version="1.1"><rect x="0" y="0" width="960" height="540" fill="#090213"></rect><path d="M0 144L13.3 147.7C26.7 151.3 53.3 158.7 80 164C106.7 169.3 133.3 172.7 160 180.7C186.7 188.7 213.3 201.3 240 194.8C266.7 188.3 293.3 162.7 320 154C346.7 145.3 373.3 153.7 400 166.2C426.7 178.7 453.3 195.3 480 199.8C506.7 204.3 533.3 196.7 560 198.3C586.7 200 613.3 211 640 217C666.7 223 693.3 224 720 215C746.7 206 773.3 187 800 184.5C826.7 182 853.3 196 880 194.7C906.7 193.3 933.3 176.7 946.7 168.3L960 160L960 0L946.7 0C933.3 0 906.7 0 880 0C853.3 0 826.7 0 800 0C773.3 0 746.7 0 720 0C693.3 0 666.7 0 640 0C613.3 0 586.7 0 560 0C533.3 0 506.7 0 480 0C453.3 0 426.7 0 400 0C373.3 0 346.7 0 320 0C293.3 0 266.7 0 240 0C213.3 0 186.7 0 160 0C133.3 0 106.7 0 80 0C53.3 0 26.7 0 13.3 0L0 0Z" fill="#37005c"></path><path d="M0 172L13.3 172.7C26.7 173.3 53.3 174.7 80 171.8C106.7 169 133.3 162 160 159.8C186.7 157.7 213.3 160.3 240 155.5C266.7 150.7 293.3 138.3 320 130.8C346.7 123.3 373.3 120.7 400 117.5C426.7 114.3 453.3 110.7 480 121C506.7 131.3 533.3 155.7 560 159.3C586.7 163 613.3 146 640 149C666.7 152 693.3 175 720 184.7C746.7 194.3 773.3 190.7 800 178C826.7 165.3 853.3 143.7 880 138.3C906.7 133 933.3 144 946.7 149.5L960 155L960 0L946.7 0C933.3 0 906.7 0 880 0C853.3 0 826.7 0 800 0C773.3 0 746.7 0 720 0C693.3 0 666.7 0 640 0C613.3 0 586.7 0 560 0C533.3 0 506.7 0 480 0C453.3 0 426.7 0 400 0C373.3 0 346.7 0 320 0C293.3 0 266.7 0 240 0C213.3 0 186.7 0 160 0C133.3 0 106.7 0 80 0C53.3 0 26.7 0 13.3 0L0 0Z" fill="#2d064c"></path><path d="M0 145L13.3 142.2C26.7 139.3 53.3 133.7 80 126.5C106.7 119.3 133.3 110.7 160 115.3C186.7 120 213.3 138 240 136.8C266.7 135.7 293.3 115.3 320 107.8C346.7 100.3 373.3 105.7 400 117C426.7 128.3 453.3 145.7 480 145.5C506.7 145.3 533.3 127.7 560 120.7C586.7 113.7 613.3 117.3 640 113C666.7 108.7 693.3 96.3 720 93.8C746.7 91.3 773.3 98.7 800 112C826.7 125.3 853.3 144.7 880 149.5C906.7 154.3 933.3 144.7 946.7 139.8L960 135L960 0L946.7 0C933.3 0 906.7 0 880 0C853.3 0 826.7 0 800 0C773.3 0 746.7 0 720 0C693.3 0 666.7 0 640 0C613.3 0 586.7 0 560 0C533.3 0 506.7 0 480 0C453.3 0 426.7 0 400 0C373.3 0 346.7 0 320 0C293.3 0 266.7 0 240 0C213.3 0 186.7 0 160 0C133.3 0 106.7 0 80 0C53.3 0 26.7 0 13.3 0L0 0Z" fill="#24093d"></path><path d="M0 101L13.3 104.8C26.7 108.7 53.3 116.3 80 109.8C106.7 103.3 133.3 82.7 160 79C186.7 75.3 213.3 88.7 240 89C266.7 89.3 293.3 76.7 320 72C346.7 67.3 373.3 70.7 400 74.3C426.7 78 453.3 82 480 80.7C506.7 79.3 533.3 72.7 560 71.7C586.7 70.7 613.3 75.3 640 77C666.7 78.7 693.3 77.3 720 74.8C746.7 72.3 773.3 68.7 800 66.7C826.7 64.7 853.3 64.3 880 67.2C906.7 70 933.3 76 946.7 79L960 82L960 0L946.7 0C933.3 0 906.7 0 880 0C853.3 0 826.7 0 800 0C773.3 0 746.7 0 720 0C693.3 0 666.7 0 640 0C613.3 0 586.7 0 560 0C533.3 0 506.7 0 480 0C453.3 0 426.7 0 400 0C373.3 0 346.7 0 320 0C293.3 0 266.7 0 240 0C213.3 0 186.7 0 160 0C133.3 0 106.7 0 80 0C53.3 0 26.7 0 13.3 0L0 0Z" fill="#1c092d"></path><path d="M0 44L13.3 48.5C26.7 53 53.3 62 80 64C106.7 66 133.3 61 160 58.2C186.7 55.3 213.3 54.7 240 54.5C266.7 54.3 293.3 54.7 320 52.2C346.7 49.7 373.3 44.3 400 47.2C426.7 50 453.3 61 480 65.2C506.7 69.3 533.3 66.7 560 67C586.7 67.3 613.3 70.7 640 69.7C666.7 68.7 693.3 63.3 720 61.5C746.7 59.7 773.3 61.3 800 63.2C826.7 65 853.3 67 880 72C906.7 77 933.3 85 946.7 89L960 93L960 0L946.7 0C933.3 0 906.7 0 880 0C853.3 0 826.7 0 800 0C773.3 0 746.7 0 720 0C693.3 0 666.7 0 640 0C613.3 0 586.7 0 560 0C533.3 0 506.7 0 480 0C453.3 0 426.7 0 400 0C373.3 0 346.7 0 320 0C293.3 0 266.7 0 240 0C213.3 0 186.7 0 160 0C133.3 0 106.7 0 80 0C53.3 0 26.7 0 13.3 0L0 0Z" fill="#16051f"></path><path d="M0 32L13.3 29.3C26.7 26.7 53.3 21.3 80 22C106.7 22.7 133.3 29.3 160 32.3C186.7 35.3 213.3 34.7 240 32C266.7 29.3 293.3 24.7 320 26.7C346.7 28.7 373.3 37.3 400 40.3C426.7 43.3 453.3 40.7 480 36.7C506.7 32.7 533.3 27.3 560 30.7C586.7 34 613.3 46 640 48C666.7 50 693.3 42 720 39C746.7 36 773.3 38 800 38.3C826.7 38.7 853.3 37.3 880 35.7C906.7 34 933.3 32 946.7 31L960 30L960 0L946.7 0C933.3 0 906.7 0 880 0C853.3 0 826.7 0 800 0C773.3 0 746.7 0 720 0C693.3 0 666.7 0 640 0C613.3 0 586.7 0 560 0C533.3 0 506.7 0 480 0C453.3 0 426.7 0 400 0C373.3 0 346.7 0 320 0C293.3 0 266.7 0 240 0C213.3 0 186.7 0 160 0C133.3 0 106.7 0 80 0C53.3 0 26.7 0 13.3 0L0 0Z" fill="#09010f"></path></svg>