<svg id="visual" viewBox="0 0 960 540" width="960" height="540" xmlns="http://www.w3.org/2000/svg" xmlns:xlink="http://www.w3.org/1999/xlink" version="1.1"><rect x="0" y="0" width="960" height="540" fill="#090213"></rect><path d="M317 0L310 7C303 14 289 28 278 41.8C267 55.7 259 69.3 255.2 83.2C251.3 97 251.7 111 256.2 124.8C260.7 138.7 269.3 152.3 271 166.2C272.7 180 267.3 194 263.5 207.8C259.7 221.7 257.3 235.3 260.7 249.2C264 263 273 277 289.8 290.8C306.7 304.7 331.3 318.3 332.2 332.2C333 346 310 360 304.2 373.8C298.3 387.7 309.7 401.3 306.8 415.2C304 429 287 443 290.2 456.8C293.3 470.7 316.7 484.3 320.3 498.2C324 512 308 526 300 533L292 540L0 540L0 533C0 526 0 512 0 498.2C0 484.3 0 470.7 0 456.8C0 443 0 429 0 415.2C0 401.3 0 387.7 0 373.8C0 360 0 346 0 332.2C0 318.3 0 304.7 0 290.8C0 277 0 263 0 249.2C0 235.3 0 221.7 0 207.8C0 194 0 180 0 166.2C0 152.3 0 138.7 0 124.8C0 111 0 97 0 83.2C0 69.3 0 55.7 0 41.8C0 28 0 14 0 7L0 0Z" fill="#37005c"></path><path d="M262 0L258.2 7C254.3 14 246.7 28 239.8 41.8C233 55.7 227 69.3 238.8 83.2C250.7 97 280.3 111 284.2 124.8C288 138.7 266 152.3 265.3 166.2C264.7 180 285.3 194 285.3 207.8C285.3 221.7 264.7 235.3 262 249.2C259.3 263 274.7 277 285.5 290.8C296.3 304.7 302.7 318.3 300.2 332.2C297.7 346 286.3 360 283.5 373.8C280.7 387.7 286.3 401.3 287.3 415.2C288.3 429 284.7 443 271.5 456.8C258.3 470.7 235.7 484.3 236.8 498.2C238 512 263 526 275.5 533L288 540L0 540L0 533C0 526 0 512 0 498.2C0 484.3 0 470.7 0 456.8C0 443 0 429 0 415.2C0 401.3 0 387.7 0 373.8C0 360 0 346 0 332.2C0 318.3 0 304.7 0 290.8C0 277 0 263 0 249.2C0 235.3 0 221.7 0 207.8C0 194 0 180 0 166.2C0 152.3 0 138.7 0 124.8C0 111 0 97 0 83.2C0 69.3 0 55.7 0 41.8C0 28 0 14 0 7L0 0Z" fill="#310453"></path><path d="M236 0L232.5 7C229 14 222 28 227.7 41.8C233.3 55.7 251.7 69.3 259.5 83.2C267.3 97 264.7 111 264.8 124.8C265 138.7 268 152.3 268.3 166.2C268.7 180 266.3 194 258.8 207.8C251.3 221.7 238.7 235.3 232.3 249.2C226 263 226 277 221.8 290.8C217.7 304.7 209.3 318.3 217.5 332.2C225.7 346 250.3 360 263.8 373.8C277.3 387.7 279.7 401.3 277.2 415.2C274.7 429 267.3 443 262.8 456.8C258.3 470.7 256.7 484.3 254.8 498.2C253 512 251 526 250 533L249 540L0 540L0 533C0 526 0 512 0 498.2C0 484.3 0 470.7 0 456.8C0 443 0 429 0 415.2C0 401.3 0 387.7 0 373.8C0 360 0 346 0 332.2C0 318.3 0 304.7 0 290.8C0 277 0 263 0 249.2C0 235.3 0 221.7 0 207.8C0 194 0 180 0 166.2C0 152.3 0 138.7 0 124.8C0 111 0 97 0 83.2C0 69.3 0 55.7 0 41.8C0 28 0 14 0 7L0 0Z" fill="#2b064a"></path><path d="M237 0L233.3 7C229.7 14 222.3 28 211.3 41.8C200.3 55.7 185.7 69.3 177.5 83.2C169.3 97 167.7 111 175 124.8C182.3 138.7 198.7 152.3 212.3 166.2C226 180 237 194 241.5 207.8C246 221.7 244 235.3 244.3 249.2C244.7 263 247.3 277 236.2 290.8C225 304.7 200 318.3 188.5 332.2C177 346 179 360 189.5 373.8C200 387.7 219 401.3 227.8 415.2C236.7 429 235.3 443 224.5 456.8C213.7 470.7 193.3 484.3 188.7 498.2C184 512 195 526 200.5 533L206 540L0 540L0 533C0 526 0 512 0 498.2C0 484.3 0 470.7 0 456.8C0 443 0 429 0 415.2C0 401.3 0 387.7 0 373.8C0 360 0 346 0 332.2C0 318.3 0 304.7 0 290.8C0 277 0 263 0 249.2C0 235.3 0 221.7 0 207.8C0 194 0 180 0 166.2C0 152.3 0 138.7 0 124.8C0 111 0 97 0 83.2C0 69.3 0 55.7 0 41.8C0 28 0 14 0 7L0 0Z" fill="#260841"></path><path d="M152 0L159.8 7C167.7 14 183.3 28 185.8 41.8C188.3 55.7 177.7 69.3 165.7 83.2C153.7 97 140.3 111 134.5 124.8C128.7 138.7 130.3 152.3 141 166.2C151.7 180 171.3 194 180.5 207.8C189.7 221.7 188.3 235.3 181.7 249.2C175 263 163 277 163.3 290.8C163.7 304.7 176.3 318.3 174.2 332.2C172 346 155 360 150.5 373.8C146 387.7 154 401.3 156.2 415.2C158.3 429 154.7 443 158.3 456.8C162 470.7 173 484.3 173.3 498.2C173.7 512 163.3 526 158.2 533L153 540L0 540L0 533C0 526 0 512 0 498.2C0 484.3 0 470.7 0 456.8C0 443 0 429 0 415.2C0 401.3 0 387.7 0 373.8C0 360 0 346 0 332.2C0 318.3 0 304.7 0 290.8C0 277 0 263 0 249.2C0 235.3 0 221.7 0 207.8C0 194 0 180 0 166.2C0 152.3 0 138.7 0 124.8C0 111 0 97 0 83.2C0 69.3 0 55.7 0 41.8C0 28 0 14 0 7L0 0Z" fill="#210938"></path><path d="M170 0L167.5 7C165 14 160 28 156.3 41.8C152.7 55.7 150.3 69.3 151.3 83.2C152.3 97 156.7 111 151.8 124.8C147 138.7 133 152.3 124.3 166.2C115.7 180 112.3 194 109.7 207.8C107 221.7 105 235.3 112.3 249.2C119.7 263 136.3 277 144.7 290.8C153 304.7 153 318.3 144.8 332.2C136.7 346 120.3 360 111.3 373.8C102.3 387.7 100.7 401.3 109.7 415.2C118.7 429 138.3 443 147 456.8C155.7 470.7 153.3 484.3 153.3 498.2C153.3 512 155.7 526 156.8 533L158 540L0 540L0 533C0 526 0 512 0 498.2C0 484.3 0 470.7 0 456.8C0 443 0 429 0 415.2C0 401.3 0 387.7 0 373.8C0 360 0 346 0 332.2C0 318.3 0 304.7 0 290.8C0 277 0 263 0 249.2C0 235.3 0 221.7 0 207.8C0 194 0 180 0 166.2C0 152.3 0 138.7 0 124.8C0 111 0 97 0 83.2C0 69.3 0 55.7 0 41.8C0 28 0 14 0 7L0 0Z" fill="#1d082f"></path><path d="M115 0L114.5 7C114 14 113 28 112 41.8C111 55.7 110 69.3 108.2 83.2C106.3 97 103.7 111 100.8 124.8C98 138.7 95 152.3 93.8 166.2C92.7 180 93.3 194 89.8 207.8C86.3 221.7 78.7 235.3 81.7 249.2C84.7 263 98.3 277 103.7 290.8C109 304.7 106 318.3 103.5 332.2C101 346 99 360 103.8 373.8C108.7 387.7 120.3 401.3 117.8 415.2C115.3 429 98.7 443 96.8 456.8C95 470.7 108 484.3 113.3 498.2C118.7 512 116.3 526 115.2 533L114 540L0 540L0 533C0 526 0 512 0 498.2C0 484.3 0 470.7 0 456.8C0 443 0 429 0 415.2C0 401.3 0 387.7 0 373.8C0 360 0 346 0 332.2C0 318.3 0 304.7 0 290.8C0 277 0 263 0 249.2C0 235.3 0 221.7 0 207.8C0 194 0 180 0 166.2C0 152.3 0 138.7 0 124.8C0 111 0 97 0 83.2C0 69.3 0 55.7 0 41.8C0 28 0 14 0 7L0 0Z" fill="#190627"></path><path d="M72 0L67.8 7C63.7 14 55.3 28 51.7 41.8C48 55.7 49 69.3 57.2 83.2C65.3 97 80.7 111 86 124.8C91.3 138.7 86.7 152.3 81 166.2C75.3 180 68.7 194 68.2 207.8C67.7 221.7 73.3 235.3 77.5 249.2C81.7 263 84.3 277 83.7 290.8C83 304.7 79 318.3 76.3 332.2C73.7 346 72.3 360 72.7 373.8C73 387.7 75 401.3 72 415.2C69 429 61 443 57.5 456.8C54 470.7 55 484.3 61.7 498.2C68.3 512 80.7 526 86.8 533L93 540L0 540L0 533C0 526 0 512 0 498.2C0 484.3 0 470.7 0 456.8C0 443 0 429 0 415.2C0 401.3 0 387.7 0 373.8C0 360 0 346 0 332.2C0 318.3 0 304.7 0 290.8C0 277 0 263 0 249.2C0 235.3 0 221.7 0 207.8C0 194 0 180 0 166.2C0 152.3 0 138.7 0 124.8C0 111 0 97 0 83.2C0 69.3 0 55.7 0 41.8C0 28 0 14 0 7L0 0Z" fill="#15041e"></path><path d="M45 0L43.8 7C42.7 14 40.3 28 38.7 41.8C37 55.7 36 69.3 34 83.2C32 97 29 111 27.2 124.8C25.3 138.7 24.7 152.3 30 166.2C35.3 180 46.7 194 51.2 207.8C55.7 221.7 53.3 235.3 46.8 249.2C40.3 263 29.7 277 25.7 290.8C21.7 304.7 24.3 318.3 25.2 332.2C26 346 25 360 26.7 373.8C28.3 387.7 32.7 401.3 37 415.2C41.3 429 45.7 443 48.3 456.8C51 470.7 52 484.3 47.5 498.2C43 512 33 526 28 533L23 540L0 540L0 533C0 526 0 512 0 498.2C0 484.3 0 470.7 0 456.8C0 443 0 429 0 415.2C0 401.3 0 387.7 0 373.8C0 360 0 346 0 332.2C0 318.3 0 304.7 0 290.8C0 277 0 263 0 249.2C0 235.3 0 221.7 0 207.8C0 194 0 180 0 166.2C0 152.3 0 138.7 0 124.8C0 111 0 97 0 83.2C0 69.3 0 55.7 0 41.8C0 28 0 14 0 7L0 0Z" fill="#0e0116"></path></svg>