<svg id="visual" viewBox="0 0 675 900" width="675" height="900" xmlns="http://www.w3.org/2000/svg" xmlns:xlink="http://www.w3.org/1999/xlink" version="1.1"><rect x="0" y="0" width="675" height="900" fill="#090213"></rect><path d="M0 531L9.3 541.7C18.7 552.3 37.3 573.7 56.2 591.5C75 609.3 94 623.7 112.8 617C131.7 610.3 150.3 582.7 169 578.2C187.7 573.7 206.3 592.3 225 605.7C243.7 619 262.3 627 281.2 626C300 625 319 615 337.8 608.7C356.7 602.3 375.3 599.7 394 610C412.7 620.3 431.3 643.7 450 632.5C468.7 621.3 487.3 575.7 506.2 554.7C525 533.7 544 537.3 562.8 551C581.7 564.7 600.3 588.3 619 610.5C637.7 632.7 656.3 653.3 665.7 663.7L675 674L675 901L665.7 901C656.3 901 637.7 901 619 901C600.3 901 581.7 901 562.8 901C544 901 525 901 506.2 901C487.3 901 468.7 901 450 901C431.3 901 412.7 901 394 901C375.3 901 356.7 901 337.8 901C319 901 300 901 281.2 901C262.3 901 243.7 901 225 901C206.3 901 187.7 901 169 901C150.3 901 131.7 901 112.8 901C94 901 75 901 56.2 901C37.3 901 18.7 901 9.3 901L0 901Z" fill="#37005c"></path><path d="M0 689L9.3 682C18.7 675 37.3 661 56.2 657C75 653 94 659 112.8 658.5C131.7 658 150.3 651 169 636.5C187.7 622 206.3 600 225 598.5C243.7 597 262.3 616 281.2 614.2C300 612.3 319 589.7 337.8 600.8C356.7 612 375.3 657 394 675.2C412.7 693.3 431.3 684.7 450 675.3C468.7 666 487.3 656 506.2 648.3C525 640.7 544 635.3 562.8 640.8C581.7 646.3 600.3 662.7 619 654.5C637.7 646.3 656.3 613.7 665.7 597.3L675 581L675 901L665.7 901C656.3 901 637.7 901 619 901C600.3 901 581.7 901 562.8 901C544 901 525 901 506.2 901C487.3 901 468.7 901 450 901C431.3 901 412.7 901 394 901C375.3 901 356.7 901 337.8 901C319 901 300 901 281.2 901C262.3 901 243.7 901 225 901C206.3 901 187.7 901 169 901C150.3 901 131.7 901 112.8 901C94 901 75 901 56.2 901C37.3 901 18.7 901 9.3 901L0 901Z" fill="#2d064c"></path><path d="M0 720L9.3 712C18.7 704 37.3 688 56.2 690C75 692 94 712 112.8 711.8C131.7 711.7 150.3 691.3 169 685.2C187.7 679 206.3 687 225 688.7C243.7 690.3 262.3 685.7 281.2 684.7C300 683.7 319 686.3 337.8 691.3C356.7 696.3 375.3 703.7 394 701C412.7 698.3 431.3 685.7 450 677.7C468.7 669.7 487.3 666.3 506.2 670C525 673.7 544 684.3 562.8 684.5C581.7 684.7 600.3 674.3 619 666.5C637.7 658.7 656.3 653.3 665.7 650.7L675 648L675 901L665.7 901C656.3 901 637.7 901 619 901C600.3 901 581.7 901 562.8 901C544 901 525 901 506.2 901C487.3 901 468.7 901 450 901C431.3 901 412.7 901 394 901C375.3 901 356.7 901 337.8 901C319 901 300 901 281.2 901C262.3 901 243.7 901 225 901C206.3 901 187.7 901 169 901C150.3 901 131.7 901 112.8 901C94 901 75 901 56.2 901C37.3 901 18.7 901 9.3 901L0 901Z" fill="#24093d"></path><path d="M0 721L9.3 722.7C18.7 724.3 37.3 727.7 56.2 736.8C75 746 94 761 112.8 770.8C131.7 780.7 150.3 785.3 169 775.8C187.7 766.3 206.3 742.7 225 724.7C243.7 706.7 262.3 694.3 281.2 702.2C300 710 319 738 337.8 742.7C356.7 747.3 375.3 728.7 394 725.3C412.7 722 431.3 734 450 735.7C468.7 737.3 487.3 728.7 506.2 732.7C525 736.7 544 753.3 562.8 748C581.7 742.7 600.3 715.3 619 715.7C637.7 716 656.3 744 665.7 758L675 772L675 901L665.7 901C656.3 901 637.7 901 619 901C600.3 901 581.7 901 562.8 901C544 901 525 901 506.2 901C487.3 901 468.7 901 450 901C431.3 901 412.7 901 394 901C375.3 901 356.7 901 337.8 901C319 901 300 901 281.2 901C262.3 901 243.7 901 225 901C206.3 901 187.7 901 169 901C150.3 901 131.7 901 112.8 901C94 901 75 901 56.2 901C37.3 901 18.7 901 9.3 901L0 901Z" fill="#1c092d"></path><path d="M0 756L9.3 755.7C18.7 755.3 37.3 754.7 56.2 760.2C75 765.7 94 777.3 112.8 777.3C131.7 777.3 150.3 765.7 169 757.5C187.7 749.3 206.3 744.7 225 754.8C243.7 765 262.3 790 281.2 804.2C300 818.3 319 821.7 337.8 821.7C356.7 821.7 375.3 818.3 394 817.3C412.7 816.3 431.3 817.7 450 810.2C468.7 802.7 487.3 786.3 506.2 775.2C525 764 544 758 562.8 766.2C581.7 774.3 600.3 796.7 619 808.7C637.7 820.7 656.3 822.3 665.7 823.2L675 824L675 901L665.7 901C656.3 901 637.7 901 619 901C600.3 901 581.7 901 562.8 901C544 901 525 901 506.2 901C487.3 901 468.7 901 450 901C431.3 901 412.7 901 394 901C375.3 901 356.7 901 337.8 901C319 901 300 901 281.2 901C262.3 901 243.7 901 225 901C206.3 901 187.7 901 169 901C150.3 901 131.7 901 112.8 901C94 901 75 901 56.2 901C37.3 901 18.7 901 9.3 901L0 901Z" fill="#16051f"></path><path d="M0 852L9.3 850.8C18.7 849.7 37.3 847.3 56.2 840.2C75 833 94 821 112.8 815.3C131.7 809.7 150.3 810.3 169 815.5C187.7 820.7 206.3 830.3 225 832.2C243.7 834 262.3 828 281.2 828.2C300 828.3 319 834.7 337.8 831C356.7 827.3 375.3 813.7 394 812.5C412.7 811.3 431.3 822.7 450 833C468.7 843.3 487.3 852.7 506.2 854C525 855.3 544 848.7 562.8 848.2C581.7 847.7 600.3 853.3 619 857.5C637.7 861.7 656.3 864.3 665.7 865.7L675 867L675 901L665.7 901C656.3 901 637.7 901 619 901C600.3 901 581.7 901 562.8 901C544 901 525 901 506.2 901C487.3 901 468.7 901 450 901C431.3 901 412.7 901 394 901C375.3 901 356.7 901 337.8 901C319 901 300 901 281.2 901C262.3 901 243.7 901 225 901C206.3 901 187.7 901 169 901C150.3 901 131.7 901 112.8 901C94 901 75 901 56.2 901C37.3 901 18.7 901 9.3 901L0 901Z" fill="#09010f"></path></svg>