<svg id="visual" viewBox="0 0 675 900" width="675" height="900" xmlns="http://www.w3.org/2000/svg" xmlns:xlink="http://www.w3.org/1999/xlink" version="1.1"><rect x="0" y="0" width="675" height="900" fill="#210435"></rect><g fill="none" stroke="#520380" stroke-width="5"><circle r="68" cx="510" cy="675"></circle><circle r="16" cx="162" cy="841"></circle><circle r="51" cx="320" cy="878"></circle><circle r="35" cx="651" cy="272"></circle><circle r="32" cx="82" cy="183"></circle><circle r="50" cx="289" cy="333"></circle><circle r="29" cx="452" cy="307"></circle><circle r="43" cx="559" cy="22"></circle><circle r="50" cx="45" cy="513"></circle><circle r="16" cx="55" cy="349"></circle><circle r="37" cx="234" cy="191"></circle><circle r="44" cx="439" cy="537"></circle><circle r="15" cx="574" cy="821"></circle><circle r="33" cx="9" cy="755"></circle><circle r="44" cx="248" cy="577"></circle><circle r="45" cx="661" cy="125"></circle><circle r="19" cx="586" cy="525"></circle><circle r="42" cx="118" cy="6"></circle><circle r="59" cx="367" cy="74"></circle><circle r="52" cx="344" cy="736"></circle><circle r="28" cx="505" cy="150"></circle><circle r="16" cx="196" cy="437"></circle><circle r="24" cx="2" cy="899"></circle><circle r="36" cx="657" cy="690"></circle><circle r="16" cx="117" cy="640"></circle></g></svg>