<svg id="visual" viewBox="0 0 675 900" width="675" height="900" xmlns="http://www.w3.org/2000/svg" xmlns:xlink="http://www.w3.org/1999/xlink" version="1.1"><rect x="0" y="0" width="675" height="900" fill="#210435"></rect><g fill="none" stroke="#520380" stroke-width="5"><circle r="68" cx="547" cy="837"></circle><circle r="16" cx="151" cy="307"></circle><circle r="27" cx="292" cy="833"></circle><circle r="40" cx="620" cy="208"></circle><circle r="57" cx="395" cy="602"></circle><circle r="30" cx="43" cy="659"></circle><circle r="20" cx="673" cy="404"></circle><circle r="48" cx="32" cy="493"></circle><circle r="48" cx="583" cy="34"></circle><circle r="54" cx="54" cy="868"></circle><circle r="18" cx="153" cy="33"></circle><circle r="22" cx="179" cy="495"></circle><circle r="19" cx="418" cy="129"></circle><circle r="40" cx="431" cy="293"></circle><circle r="42" cx="515" cy="507"></circle><circle r="48" cx="325" cy="454"></circle><circle r="19" cx="288" cy="693"></circle><circle r="33" cx="304" cy="232"></circle><circle r="65" cx="525" cy="673"></circle><circle r="34" cx="34" cy="230"></circle><circle r="15" cx="649" cy="561"></circle><circle r="48" cx="347" cy="8"></circle><circle r="35" cx="9" cy="72"></circle><circle r="28" cx="663" cy="700"></circle></g></svg>