<svg id="visual" viewBox="0 0 675 900" width="675" height="900" xmlns="http://www.w3.org/2000/svg" xmlns:xlink="http://www.w3.org/1999/xlink" version="1.1"><rect x="0" y="0" width="675" height="900" fill="#210435"></rect><path d="M0 393L9.3 382.2C18.7 371.3 37.3 349.7 56.2 336.3C75 323 94 318 112.8 325.5C131.7 333 150.3 353 169 347.2C187.7 341.3 206.3 309.7 225 308.2C243.7 306.7 262.3 335.3 281.2 352C300 368.7 319 373.3 337.8 370.7C356.7 368 375.3 358 394 344.7C412.7 331.3 431.3 314.7 450 318.5C468.7 322.3 487.3 346.7 506.2 354C525 361.3 544 351.7 562.8 339.5C581.7 327.3 600.3 312.7 619 313.8C637.7 315 656.3 332 665.7 340.5L675 349L675 0L665.7 0C656.3 0 637.7 0 619 0C600.3 0 581.7 0 562.8 0C544 0 525 0 506.2 0C487.3 0 468.7 0 450 0C431.3 0 412.7 0 394 0C375.3 0 356.7 0 337.8 0C319 0 300 0 281.2 0C262.3 0 243.7 0 225 0C206.3 0 187.7 0 169 0C150.3 0 131.7 0 112.8 0C94 0 75 0 56.2 0C37.3 0 18.7 0 9.3 0L0 0Z" fill="#3c0660"></path><path d="M0 262L9.3 269.8C18.7 277.7 37.3 293.3 56.2 300C75 306.7 94 304.3 112.8 307.7C131.7 311 150.3 320 169 312C187.7 304 206.3 279 225 273.3C243.7 267.7 262.3 281.3 281.2 296.7C300 312 319 329 337.8 323.8C356.7 318.7 375.3 291.3 394 273.3C412.7 255.3 431.3 246.7 450 244.7C468.7 242.7 487.3 247.3 506.2 251.5C525 255.7 544 259.3 562.8 273.8C581.7 288.3 600.3 313.7 619 319.7C637.7 325.7 656.3 312.3 665.7 305.7L675 299L675 0L665.7 0C656.3 0 637.7 0 619 0C600.3 0 581.7 0 562.8 0C544 0 525 0 506.2 0C487.3 0 468.7 0 450 0C431.3 0 412.7 0 394 0C375.3 0 356.7 0 337.8 0C319 0 300 0 281.2 0C262.3 0 243.7 0 225 0C206.3 0 187.7 0 169 0C150.3 0 131.7 0 112.8 0C94 0 75 0 56.2 0C37.3 0 18.7 0 9.3 0L0 0Z" fill="#360858"></path><path d="M0 206L9.3 220.2C18.7 234.3 37.3 262.7 56.2 270C75 277.3 94 263.7 112.8 251.5C131.7 239.3 150.3 228.7 169 240.5C187.7 252.3 206.3 286.7 225 283.3C243.7 280 262.3 239 281.2 239C300 239 319 280 337.8 285C356.7 290 375.3 259 394 242.3C412.7 225.7 431.3 223.3 450 225C468.7 226.7 487.3 232.3 506.2 232.3C525 232.3 544 226.7 562.8 228.3C581.7 230 600.3 239 619 248.2C637.7 257.3 656.3 266.7 665.7 271.3L675 276L675 0L665.7 0C656.3 0 637.7 0 619 0C600.3 0 581.7 0 562.8 0C544 0 525 0 506.2 0C487.3 0 468.7 0 450 0C431.3 0 412.7 0 394 0C375.3 0 356.7 0 337.8 0C319 0 300 0 281.2 0C262.3 0 243.7 0 225 0C206.3 0 187.7 0 169 0C150.3 0 131.7 0 112.8 0C94 0 75 0 56.2 0C37.3 0 18.7 0 9.3 0L0 0Z" fill="#300950"></path><path d="M0 215L9.3 213.2C18.7 211.3 37.3 207.7 56.2 219.2C75 230.7 94 257.3 112.8 260.3C131.7 263.3 150.3 242.7 169 237.2C187.7 231.7 206.3 241.3 225 249.7C243.7 258 262.3 265 281.2 269.8C300 274.7 319 277.3 337.8 259.5C356.7 241.7 375.3 203.3 394 200C412.7 196.7 431.3 228.3 450 243.3C468.7 258.3 487.3 256.7 506.2 256.2C525 255.7 544 256.3 562.8 260C581.7 263.7 600.3 270.3 619 258.5C637.7 246.7 656.3 216.3 665.7 201.2L675 186L675 0L665.7 0C656.3 0 637.7 0 619 0C600.3 0 581.7 0 562.8 0C544 0 525 0 506.2 0C487.3 0 468.7 0 450 0C431.3 0 412.7 0 394 0C375.3 0 356.7 0 337.8 0C319 0 300 0 281.2 0C262.3 0 243.7 0 225 0C206.3 0 187.7 0 169 0C150.3 0 131.7 0 112.8 0C94 0 75 0 56.2 0C37.3 0 18.7 0 9.3 0L0 0Z" fill="#2a0a48"></path><path d="M0 151L9.3 150.7C18.7 150.3 37.3 149.7 56.2 163.7C75 177.7 94 206.3 112.8 212C131.7 217.7 150.3 200.3 169 197.3C187.7 194.3 206.3 205.7 225 200.8C243.7 196 262.3 175 281.2 168.5C300 162 319 170 337.8 171.8C356.7 173.7 375.3 169.3 394 177.2C412.7 185 431.3 205 450 217.7C468.7 230.3 487.3 235.7 506.2 225C525 214.3 544 187.7 562.8 170.3C581.7 153 600.3 145 619 151.8C637.7 158.7 656.3 180.3 665.7 191.2L675 202L675 0L665.7 0C656.3 0 637.7 0 619 0C600.3 0 581.7 0 562.8 0C544 0 525 0 506.2 0C487.3 0 468.7 0 450 0C431.3 0 412.7 0 394 0C375.3 0 356.7 0 337.8 0C319 0 300 0 281.2 0C262.3 0 243.7 0 225 0C206.3 0 187.7 0 169 0C150.3 0 131.7 0 112.8 0C94 0 75 0 56.2 0C37.3 0 18.7 0 9.3 0L0 0Z" fill="#250a40"></path><path d="M0 121L9.3 124.2C18.7 127.3 37.3 133.7 56.2 131.8C75 130 94 120 112.8 126.8C131.7 133.7 150.3 157.3 169 170.7C187.7 184 206.3 187 225 181.7C243.7 176.3 262.3 162.7 281.2 163.7C300 164.7 319 180.3 337.8 189.2C356.7 198 375.3 200 394 200.5C412.7 201 431.3 200 450 194.8C468.7 189.7 487.3 180.3 506.2 176.8C525 173.3 544 175.7 562.8 166.2C581.7 156.7 600.3 135.3 619 135.3C637.7 135.3 656.3 156.7 665.7 167.3L675 178L675 0L665.7 0C656.3 0 637.7 0 619 0C600.3 0 581.7 0 562.8 0C544 0 525 0 506.2 0C487.3 0 468.7 0 450 0C431.3 0 412.7 0 394 0C375.3 0 356.7 0 337.8 0C319 0 300 0 281.2 0C262.3 0 243.7 0 225 0C206.3 0 187.7 0 169 0C150.3 0 131.7 0 112.8 0C94 0 75 0 56.2 0C37.3 0 18.7 0 9.3 0L0 0Z" fill="#200a38"></path><path d="M0 122L9.3 126.8C18.7 131.7 37.3 141.3 56.2 145C75 148.7 94 146.3 112.8 145.2C131.7 144 150.3 144 169 136.3C187.7 128.7 206.3 113.3 225 110.5C243.7 107.7 262.3 117.3 281.2 118.8C300 120.3 319 113.7 337.8 106C356.7 98.3 375.3 89.7 394 86.2C412.7 82.7 431.3 84.3 450 90.7C468.7 97 487.3 108 506.2 108.2C525 108.3 544 97.7 562.8 104.3C581.7 111 600.3 135 619 138.5C637.7 142 656.3 125 665.7 116.5L675 108L675 0L665.7 0C656.3 0 637.7 0 619 0C600.3 0 581.7 0 562.8 0C544 0 525 0 506.2 0C487.3 0 468.7 0 450 0C431.3 0 412.7 0 394 0C375.3 0 356.7 0 337.8 0C319 0 300 0 281.2 0C262.3 0 243.7 0 225 0C206.3 0 187.7 0 169 0C150.3 0 131.7 0 112.8 0C94 0 75 0 56.2 0C37.3 0 18.7 0 9.3 0L0 0Z" fill="#1c0830"></path><path d="M0 102L9.3 104C18.7 106 37.3 110 56.2 105.2C75 100.3 94 86.7 112.8 78C131.7 69.3 150.3 65.7 169 72.5C187.7 79.3 206.3 96.7 225 94.5C243.7 92.3 262.3 70.7 281.2 69.3C300 68 319 87 337.8 86C356.7 85 375.3 64 394 62.5C412.7 61 431.3 79 450 83.2C468.7 87.3 487.3 77.7 506.2 68.7C525 59.7 544 51.3 562.8 48.3C581.7 45.3 600.3 47.7 619 60C637.7 72.3 656.3 94.7 665.7 105.8L675 117L675 0L665.7 0C656.3 0 637.7 0 619 0C600.3 0 581.7 0 562.8 0C544 0 525 0 506.2 0C487.3 0 468.7 0 450 0C431.3 0 412.7 0 394 0C375.3 0 356.7 0 337.8 0C319 0 300 0 281.2 0C262.3 0 243.7 0 225 0C206.3 0 187.7 0 169 0C150.3 0 131.7 0 112.8 0C94 0 75 0 56.2 0C37.3 0 18.7 0 9.3 0L0 0Z" fill="#190528"></path><path d="M0 44L9.3 42.2C18.7 40.3 37.3 36.7 56.2 41.8C75 47 94 61 112.8 61.8C131.7 62.7 150.3 50.3 169 50.2C187.7 50 206.3 62 225 58.8C243.7 55.7 262.3 37.3 281.2 33.2C300 29 319 39 337.8 43C356.7 47 375.3 45 394 43.5C412.7 42 431.3 41 450 38.7C468.7 36.3 487.3 32.7 506.2 31C525 29.3 544 29.7 562.8 29.5C581.7 29.3 600.3 28.7 619 31.2C637.7 33.7 656.3 39.3 665.7 42.2L675 45L675 0L665.7 0C656.3 0 637.7 0 619 0C600.3 0 581.7 0 562.8 0C544 0 525 0 506.2 0C487.3 0 468.7 0 450 0C431.3 0 412.7 0 394 0C375.3 0 356.7 0 337.8 0C319 0 300 0 281.2 0C262.3 0 243.7 0 225 0C206.3 0 187.7 0 169 0C150.3 0 131.7 0 112.8 0C94 0 75 0 56.2 0C37.3 0 18.7 0 9.3 0L0 0Z" fill="#150121"></path></svg>