<svg id="visual" viewBox="0 0 960 540" width="960" height="540" xmlns="http://www.w3.org/2000/svg" xmlns:xlink="http://www.w3.org/1999/xlink" version="1.1"><rect x="0" y="0" width="960" height="540" fill="#210435"></rect><path d="M507 0L499.2 7.5C491.3 15 475.7 30 459.3 45C443 60 426 75 405.8 90C385.7 105 362.3 120 377.2 135C392 150 445 165 450.8 180C456.7 195 415.3 210 403.8 225C392.3 240 410.7 255 409.8 270C409 285 389 300 384.5 315C380 330 391 345 387 360C383 375 364 390 364.5 405C365 420 385 435 398.2 450C411.3 465 417.7 480 438.2 495C458.7 510 493.3 525 510.7 532.5L528 540L0 540L0 532.5C0 525 0 510 0 495C0 480 0 465 0 450C0 435 0 420 0 405C0 390 0 375 0 360C0 345 0 330 0 315C0 300 0 285 0 270C0 255 0 240 0 225C0 210 0 195 0 180C0 165 0 150 0 135C0 120 0 105 0 90C0 75 0 60 0 45C0 30 0 15 0 7.5L0 0Z" fill="#2f034c"></path><path d="M291 0L300.5 7.5C310 15 329 30 342 45C355 60 362 75 380.7 90C399.3 105 429.7 120 426.2 135C422.7 150 385.3 165 381.8 180C378.3 195 408.7 210 419.2 225C429.7 240 420.3 255 396.5 270C372.7 285 334.3 300 340.2 315C346 330 396 345 414.3 360C432.7 375 419.3 390 414 405C408.7 420 411.3 435 393.8 450C376.3 465 338.7 480 319.8 495C301 510 301 525 301 532.5L301 540L0 540L0 532.5C0 525 0 510 0 495C0 480 0 465 0 450C0 435 0 420 0 405C0 390 0 375 0 360C0 345 0 330 0 315C0 300 0 285 0 270C0 255 0 240 0 225C0 210 0 195 0 180C0 165 0 150 0 135C0 120 0 105 0 90C0 75 0 60 0 45C0 30 0 15 0 7.5L0 0Z" fill="#2a0544"></path><path d="M419 0L399.7 7.5C380.3 15 341.7 30 315.5 45C289.3 60 275.7 75 270.3 90C265 105 268 120 268 135C268 150 265 165 288.7 180C312.3 195 362.7 210 383 225C403.3 240 393.7 255 370.3 270C347 285 310 300 311.7 315C313.3 330 353.7 345 351.5 360C349.3 375 304.7 390 281.3 405C258 420 256 435 272.8 450C289.7 465 325.3 480 349.8 495C374.3 510 387.7 525 394.3 532.5L401 540L0 540L0 532.5C0 525 0 510 0 495C0 480 0 465 0 450C0 435 0 420 0 405C0 390 0 375 0 360C0 345 0 330 0 315C0 300 0 285 0 270C0 255 0 240 0 225C0 210 0 195 0 180C0 165 0 150 0 135C0 120 0 105 0 90C0 75 0 60 0 45C0 30 0 15 0 7.5L0 0Z" fill="#26073c"></path><path d="M369 0L365.8 7.5C362.7 15 356.3 30 346.5 45C336.7 60 323.3 75 318.2 90C313 105 316 120 312.8 135C309.7 150 300.3 165 307 180C313.7 195 336.3 210 335.2 225C334 240 309 255 309.2 270C309.3 285 334.7 300 335.7 315C336.7 330 313.3 345 291.3 360C269.3 375 248.7 390 252.7 405C256.7 420 285.3 435 307.7 450C330 465 346 480 338 495C330 510 298 525 282 532.5L266 540L0 540L0 532.5C0 525 0 510 0 495C0 480 0 465 0 450C0 435 0 420 0 405C0 390 0 375 0 360C0 345 0 330 0 315C0 300 0 285 0 270C0 255 0 240 0 225C0 210 0 195 0 180C0 165 0 150 0 135C0 120 0 105 0 90C0 75 0 60 0 45C0 30 0 15 0 7.5L0 0Z" fill="#220835"></path><path d="M305 0L303.2 7.5C301.3 15 297.7 30 284.8 45C272 60 250 75 246.3 90C242.7 105 257.3 120 254.8 135C252.3 150 232.7 165 220.8 180C209 195 205 210 221.3 225C237.7 240 274.3 255 276.2 270C278 285 245 300 226.3 315C207.7 330 203.3 345 201 360C198.7 375 198.3 390 198.3 405C198.3 420 198.7 435 198.5 450C198.3 465 197.7 480 203.5 495C209.3 510 221.7 525 227.8 532.5L234 540L0 540L0 532.5C0 525 0 510 0 495C0 480 0 465 0 450C0 435 0 420 0 405C0 390 0 375 0 360C0 345 0 330 0 315C0 300 0 285 0 270C0 255 0 240 0 225C0 210 0 195 0 180C0 165 0 150 0 135C0 120 0 105 0 90C0 75 0 60 0 45C0 30 0 15 0 7.5L0 0Z" fill="#1e082d"></path><path d="M173 0L175.8 7.5C178.7 15 184.3 30 183 45C181.7 60 173.3 75 165.3 90C157.3 105 149.7 120 150.5 135C151.3 150 160.7 165 169.8 180C179 195 188 210 199.8 225C211.7 240 226.3 255 230.3 270C234.3 285 227.7 300 212.5 315C197.3 330 173.7 345 172.3 360C171 375 192 390 189.3 405C186.7 420 160.3 435 154.7 450C149 465 164 480 166.2 495C168.3 510 157.7 525 152.3 532.5L147 540L0 540L0 532.5C0 525 0 510 0 495C0 480 0 465 0 450C0 435 0 420 0 405C0 390 0 375 0 360C0 345 0 330 0 315C0 300 0 285 0 270C0 255 0 240 0 225C0 210 0 195 0 180C0 165 0 150 0 135C0 120 0 105 0 90C0 75 0 60 0 45C0 30 0 15 0 7.5L0 0Z" fill="#1a0625"></path><path d="M170 0L164.8 7.5C159.7 15 149.3 30 138.2 45C127 60 115 75 113.3 90C111.7 105 120.3 120 136.2 135C152 150 175 165 171.5 180C168 195 138 210 137 225C136 240 164 255 173.2 270C182.3 285 172.7 300 166 315C159.3 330 155.7 345 157 360C158.3 375 164.7 390 162 405C159.3 420 147.7 435 151.3 450C155 465 174 480 171.7 495C169.3 510 145.7 525 133.8 532.5L122 540L0 540L0 532.5C0 525 0 510 0 495C0 480 0 465 0 450C0 435 0 420 0 405C0 390 0 375 0 360C0 345 0 330 0 315C0 300 0 285 0 270C0 255 0 240 0 225C0 210 0 195 0 180C0 165 0 150 0 135C0 120 0 105 0 90C0 75 0 60 0 45C0 30 0 15 0 7.5L0 0Z" fill="#16041e"></path><path d="M136 0L137.7 7.5C139.3 15 142.7 30 130.5 45C118.3 60 90.7 75 79.2 90C67.7 105 72.3 120 72.5 135C72.7 150 68.3 165 71.2 180C74 195 84 210 88.5 225C93 240 92 255 91.2 270C90.3 285 89.7 300 96.8 315C104 330 119 345 115.5 360C112 375 90 390 82.7 405C75.3 420 82.7 435 83.5 450C84.3 465 78.7 480 86.7 495C94.7 510 116.3 525 127.2 532.5L138 540L0 540L0 532.5C0 525 0 510 0 495C0 480 0 465 0 450C0 435 0 420 0 405C0 390 0 375 0 360C0 345 0 330 0 315C0 300 0 285 0 270C0 255 0 240 0 225C0 210 0 195 0 180C0 165 0 150 0 135C0 120 0 105 0 90C0 75 0 60 0 45C0 30 0 15 0 7.5L0 0Z" fill="#110217"></path><path d="M45 0L49.7 7.5C54.3 15 63.7 30 72.7 45C81.7 60 90.3 75 82 90C73.7 105 48.3 120 43.3 135C38.3 150 53.7 165 61.8 180C70 195 71 210 73.7 225C76.3 240 80.7 255 80.3 270C80 285 75 300 64.3 315C53.7 330 37.3 345 41.3 360C45.3 375 69.7 390 72.7 405C75.7 420 57.3 435 50.7 450C44 465 49 480 57.8 495C66.7 510 79.3 525 85.7 532.5L92 540L0 540L0 532.5C0 525 0 510 0 495C0 480 0 465 0 450C0 435 0 420 0 405C0 390 0 375 0 360C0 345 0 330 0 315C0 300 0 285 0 270C0 255 0 240 0 225C0 210 0 195 0 180C0 165 0 150 0 135C0 120 0 105 0 90C0 75 0 60 0 45C0 30 0 15 0 7.5L0 0Z" fill="#08000d"></path></svg>