<svg id="visual" viewBox="0 0 960 540" width="960" height="540" xmlns="http://www.w3.org/2000/svg" xmlns:xlink="http://www.w3.org/1999/xlink" version="1.1"><rect x="0" y="0" width="960" height="540" fill="#210435"></rect><path d="M635 540L612 532.5C589 525 543 510 538.8 495C534.7 480 572.3 465 570.5 450C568.7 435 527.3 420 518 405C508.7 390 531.3 375 526.5 360C521.7 345 489.3 330 478.7 315C468 300 479 285 488.8 270C498.7 255 507.3 240 524.2 225C541 210 566 195 556.7 180C547.3 165 503.7 150 508 135C512.3 120 564.7 105 582.8 90C601 75 585 60 565.5 45C546 30 523 15 511.5 7.5L500 0L960 0L960 7.5C960 15 960 30 960 45C960 60 960 75 960 90C960 105 960 120 960 135C960 150 960 165 960 180C960 195 960 210 960 225C960 240 960 255 960 270C960 285 960 300 960 315C960 330 960 345 960 360C960 375 960 390 960 405C960 420 960 435 960 450C960 465 960 480 960 495C960 510 960 525 960 532.5L960 540Z" fill="#3c0660"></path><path d="M672 540L651.8 532.5C631.7 525 591.3 510 573.5 495C555.7 480 560.3 465 562.3 450C564.3 435 563.7 420 554.8 405C546 390 529 375 547.3 360C565.7 345 619.3 330 619 315C618.7 300 564.3 285 533.3 270C502.3 255 494.7 240 500.2 225C505.7 210 524.3 195 541.2 180C558 165 573 150 567.2 135C561.3 120 534.7 105 529 90C523.3 75 538.7 60 542 45C545.3 30 536.7 15 532.3 7.5L528 0L960 0L960 7.5C960 15 960 30 960 45C960 60 960 75 960 90C960 105 960 120 960 135C960 150 960 165 960 180C960 195 960 210 960 225C960 240 960 255 960 270C960 285 960 300 960 315C960 330 960 345 960 360C960 375 960 390 960 405C960 420 960 435 960 450C960 465 960 480 960 495C960 510 960 525 960 532.5L960 540Z" fill="#360858"></path><path d="M642 540L625.2 532.5C608.3 525 574.7 510 574.5 495C574.3 480 607.7 465 617 450C626.3 435 611.7 420 615 405C618.3 390 639.7 375 631 360C622.3 345 583.7 330 588.7 315C593.7 300 642.3 285 642 270C641.7 255 592.3 240 574.3 225C556.3 210 569.7 195 574.2 180C578.7 165 574.3 150 584.3 135C594.3 120 618.7 105 626.7 90C634.7 75 626.3 60 636.8 45C647.3 30 676.7 15 691.3 7.5L706 0L960 0L960 7.5C960 15 960 30 960 45C960 60 960 75 960 90C960 105 960 120 960 135C960 150 960 165 960 180C960 195 960 210 960 225C960 240 960 255 960 270C960 285 960 300 960 315C960 330 960 345 960 360C960 375 960 390 960 405C960 420 960 435 960 450C960 465 960 480 960 495C960 510 960 525 960 532.5L960 540Z" fill="#300950"></path><path d="M721 540L718.3 532.5C715.7 525 710.3 510 700 495C689.7 480 674.3 465 664.7 450C655 435 651 420 641.7 405C632.3 390 617.7 375 628 360C638.3 345 673.7 330 674.3 315C675 300 641 285 641.2 270C641.3 255 675.7 240 692.2 225C708.7 210 707.3 195 709.5 180C711.7 165 717.3 150 711.3 135C705.3 120 687.7 105 692 90C696.3 75 722.7 60 713.2 45C703.7 30 658.3 15 635.7 7.5L613 0L960 0L960 7.5C960 15 960 30 960 45C960 60 960 75 960 90C960 105 960 120 960 135C960 150 960 165 960 180C960 195 960 210 960 225C960 240 960 255 960 270C960 285 960 300 960 315C960 330 960 345 960 360C960 375 960 390 960 405C960 420 960 435 960 450C960 465 960 480 960 495C960 510 960 525 960 532.5L960 540Z" fill="#2a0a48"></path><path d="M688 540L699.5 532.5C711 525 734 510 749.7 495C765.3 480 773.7 465 776.7 450C779.7 435 777.3 420 776.8 405C776.3 390 777.7 375 761.8 360C746 345 713 330 696.2 315C679.3 300 678.7 285 680 270C681.3 255 684.7 240 692.8 225C701 210 714 195 717.5 180C721 165 715 150 720.8 135C726.7 120 744.3 105 749.3 90C754.3 75 746.7 60 729.5 45C712.3 30 685.7 15 672.3 7.5L659 0L960 0L960 7.5C960 15 960 30 960 45C960 60 960 75 960 90C960 105 960 120 960 135C960 150 960 165 960 180C960 195 960 210 960 225C960 240 960 255 960 270C960 285 960 300 960 315C960 330 960 345 960 360C960 375 960 390 960 405C960 420 960 435 960 450C960 465 960 480 960 495C960 510 960 525 960 532.5L960 540Z" fill="#250a40"></path><path d="M796 540L783.3 532.5C770.7 525 745.3 510 731.8 495C718.3 480 716.7 465 717.5 450C718.3 435 721.7 420 720 405C718.3 390 711.7 375 709.7 360C707.7 345 710.3 330 720 315C729.7 300 746.3 285 748.3 270C750.3 255 737.7 240 745.5 225C753.3 210 781.7 195 790.2 180C798.7 165 787.3 150 780.7 135C774 120 772 105 776.7 90C781.3 75 792.7 60 799.2 45C805.7 30 807.3 15 808.2 7.5L809 0L960 0L960 7.5C960 15 960 30 960 45C960 60 960 75 960 90C960 105 960 120 960 135C960 150 960 165 960 180C960 195 960 210 960 225C960 240 960 255 960 270C960 285 960 300 960 315C960 330 960 345 960 360C960 375 960 390 960 405C960 420 960 435 960 450C960 465 960 480 960 495C960 510 960 525 960 532.5L960 540Z" fill="#200a38"></path><path d="M828 540L822.3 532.5C816.7 525 805.3 510 802.8 495C800.3 480 806.7 465 801.5 450C796.3 435 779.7 420 787.2 405C794.7 390 826.3 375 829.7 360C833 345 808 330 800.8 315C793.7 300 804.3 285 804.2 270C804 255 793 240 784.3 225C775.7 210 769.3 195 774.2 180C779 165 795 150 794.7 135C794.3 120 777.7 105 772.7 90C767.7 75 774.3 60 783 45C791.7 30 802.3 15 807.7 7.5L813 0L960 0L960 7.5C960 15 960 30 960 45C960 60 960 75 960 90C960 105 960 120 960 135C960 150 960 165 960 180C960 195 960 210 960 225C960 240 960 255 960 270C960 285 960 300 960 315C960 330 960 345 960 360C960 375 960 390 960 405C960 420 960 435 960 450C960 465 960 480 960 495C960 510 960 525 960 532.5L960 540Z" fill="#1c0830"></path><path d="M847 540L852.8 532.5C858.7 525 870.3 510 871.2 495C872 480 862 465 858.8 450C855.7 435 859.3 420 863.7 405C868 390 873 375 872.8 360C872.7 345 867.3 330 866.2 315C865 300 868 285 871.7 270C875.3 255 879.7 240 875.2 225C870.7 210 857.3 195 854.2 180C851 165 858 150 865.8 135C873.7 120 882.3 105 875.5 90C868.7 75 846.3 60 843.5 45C840.7 30 857.3 15 865.7 7.5L874 0L960 0L960 7.5C960 15 960 30 960 45C960 60 960 75 960 90C960 105 960 120 960 135C960 150 960 165 960 180C960 195 960 210 960 225C960 240 960 255 960 270C960 285 960 300 960 315C960 330 960 345 960 360C960 375 960 390 960 405C960 420 960 435 960 450C960 465 960 480 960 495C960 510 960 525 960 532.5L960 540Z" fill="#190528"></path><path d="M903 540L902.7 532.5C902.3 525 901.7 510 899 495C896.3 480 891.7 465 888.7 450C885.7 435 884.3 420 890.8 405C897.3 390 911.7 375 917.2 360C922.7 345 919.3 330 919.5 315C919.7 300 923.3 285 920 270C916.7 255 906.3 240 907.8 225C909.3 210 922.7 195 923 180C923.3 165 910.7 150 900 135C889.3 120 880.7 105 885.5 90C890.3 75 908.7 60 918 45C927.3 30 927.7 15 927.8 7.5L928 0L960 0L960 7.5C960 15 960 30 960 45C960 60 960 75 960 90C960 105 960 120 960 135C960 150 960 165 960 180C960 195 960 210 960 225C960 240 960 255 960 270C960 285 960 300 960 315C960 330 960 345 960 360C960 375 960 390 960 405C960 420 960 435 960 450C960 465 960 480 960 495C960 510 960 525 960 532.5L960 540Z" fill="#150121"></path></svg>