<svg id="visual" viewBox="0 0 960 540" width="960" height="540" xmlns="http://www.w3.org/2000/svg" xmlns:xlink="http://www.w3.org/1999/xlink" version="1.1"><rect x="0" y="0" width="960" height="540" fill="#210435"></rect><path d="M0 196L14.5 197.8C29 199.7 58 203.3 87.2 218.2C116.3 233 145.7 259 174.8 278.7C204 298.3 233 311.7 262 309.2C291 306.7 320 288.3 349 272.8C378 257.3 407 244.7 436.2 253.7C465.3 262.7 494.7 293.3 523.8 297.8C553 302.3 582 280.7 611 276.5C640 272.3 669 285.7 698 283.5C727 281.3 756 263.7 785.2 248.8C814.3 234 843.7 222 872.8 229.2C902 236.3 931 262.7 945.5 275.8L960 289L960 0L945.5 0C931 0 902 0 872.8 0C843.7 0 814.3 0 785.2 0C756 0 727 0 698 0C669 0 640 0 611 0C582 0 553 0 523.8 0C494.7 0 465.3 0 436.2 0C407 0 378 0 349 0C320 0 291 0 262 0C233 0 204 0 174.8 0C145.7 0 116.3 0 87.2 0C58 0 29 0 14.5 0L0 0Z" fill="#23013a"></path><path d="M0 244L14.5 249.2C29 254.3 58 264.7 87.2 265.3C116.3 266 145.7 257 174.8 252.3C204 247.7 233 247.3 262 246.2C291 245 320 243 349 244C378 245 407 249 436.2 252.7C465.3 256.3 494.7 259.7 523.8 247.5C553 235.3 582 207.7 611 194.5C640 181.3 669 182.7 698 183.7C727 184.7 756 185.3 785.2 201C814.3 216.7 843.7 247.3 872.8 252.5C902 257.7 931 237.3 945.5 227.2L960 217L960 0L945.5 0C931 0 902 0 872.8 0C843.7 0 814.3 0 785.2 0C756 0 727 0 698 0C669 0 640 0 611 0C582 0 553 0 523.8 0C494.7 0 465.3 0 436.2 0C407 0 378 0 349 0C320 0 291 0 262 0C233 0 204 0 174.8 0C145.7 0 116.3 0 87.2 0C58 0 29 0 14.5 0L0 0Z" fill="#1f0231"></path><path d="M0 191L14.5 196.5C29 202 58 213 87.2 207.8C116.3 202.7 145.7 181.3 174.8 171.2C204 161 233 162 262 157.3C291 152.7 320 142.3 349 145.3C378 148.3 407 164.7 436.2 170.8C465.3 177 494.7 173 523.8 165C553 157 582 145 611 147C640 149 669 165 698 171.2C727 177.3 756 173.7 785.2 164.3C814.3 155 843.7 140 872.8 136.8C902 133.7 931 142.3 945.5 146.7L960 151L960 0L945.5 0C931 0 902 0 872.8 0C843.7 0 814.3 0 785.2 0C756 0 727 0 698 0C669 0 640 0 611 0C582 0 553 0 523.8 0C494.7 0 465.3 0 436.2 0C407 0 378 0 349 0C320 0 291 0 262 0C233 0 204 0 174.8 0C145.7 0 116.3 0 87.2 0C58 0 29 0 14.5 0L0 0Z" fill="#1c0228"></path><path d="M0 135L14.5 130.7C29 126.3 58 117.7 87.2 112.7C116.3 107.7 145.7 106.3 174.8 104.8C204 103.3 233 101.7 262 111.3C291 121 320 142 349 144.7C378 147.3 407 131.7 436.2 123.8C465.3 116 494.7 116 523.8 117.3C553 118.7 582 121.3 611 117.7C640 114 669 104 698 101.5C727 99 756 104 785.2 106.8C814.3 109.7 843.7 110.3 872.8 116C902 121.7 931 132.3 945.5 137.7L960 143L960 0L945.5 0C931 0 902 0 872.8 0C843.7 0 814.3 0 785.2 0C756 0 727 0 698 0C669 0 640 0 611 0C582 0 553 0 523.8 0C494.7 0 465.3 0 436.2 0C407 0 378 0 349 0C320 0 291 0 262 0C233 0 204 0 174.8 0C145.7 0 116.3 0 87.2 0C58 0 29 0 14.5 0L0 0Z" fill="#180220"></path><path d="M0 75L14.5 80.8C29 86.7 58 98.3 87.2 100.2C116.3 102 145.7 94 174.8 97.5C204 101 233 116 262 116.5C291 117 320 103 349 100.7C378 98.3 407 107.7 436.2 114.2C465.3 120.7 494.7 124.3 523.8 118.7C553 113 582 98 611 92.8C640 87.7 669 92.3 698 93C727 93.7 756 90.3 785.2 91.8C814.3 93.3 843.7 99.7 872.8 95C902 90.3 931 74.7 945.5 66.8L960 59L960 0L945.5 0C931 0 902 0 872.8 0C843.7 0 814.3 0 785.2 0C756 0 727 0 698 0C669 0 640 0 611 0C582 0 553 0 523.8 0C494.7 0 465.3 0 436.2 0C407 0 378 0 349 0C320 0 291 0 262 0C233 0 204 0 174.8 0C145.7 0 116.3 0 87.2 0C58 0 29 0 14.5 0L0 0Z" fill="#110118"></path><path d="M0 27L14.5 29.7C29 32.3 58 37.7 87.2 37.3C116.3 37 145.7 31 174.8 30.5C204 30 233 35 262 36.5C291 38 320 36 349 39.5C378 43 407 52 436.2 58.7C465.3 65.3 494.7 69.7 523.8 72.7C553 75.7 582 77.3 611 71.7C640 66 669 53 698 46.8C727 40.7 756 41.3 785.2 43.2C814.3 45 843.7 48 872.8 48.8C902 49.7 931 48.3 945.5 47.7L960 47L960 0L945.5 0C931 0 902 0 872.8 0C843.7 0 814.3 0 785.2 0C756 0 727 0 698 0C669 0 640 0 611 0C582 0 553 0 523.8 0C494.7 0 465.3 0 436.2 0C407 0 378 0 349 0C320 0 291 0 262 0C233 0 204 0 174.8 0C145.7 0 116.3 0 87.2 0C58 0 29 0 14.5 0L0 0Z" fill="#08000d"></path></svg>