<svg id="visual" viewBox="0 0 675 900" width="675" height="900" xmlns="http://www.w3.org/2000/svg" xmlns:xlink="http://www.w3.org/1999/xlink" version="1.1"><rect x="0" y="0" width="675" height="900" fill="#210435"></rect><path d="M0 327L10.2 330.2C20.3 333.3 40.7 339.7 61.2 364.3C81.7 389 102.3 432 122.8 464.7C143.3 497.3 163.7 519.7 184 515.5C204.3 511.3 224.7 480.7 245.2 454.8C265.7 429 286.3 408 306.8 423C327.3 438 347.7 489 368.2 496.5C388.7 504 409.3 468 429.8 461.2C450.3 454.3 470.7 476.7 491 473.2C511.3 469.7 531.7 440.3 552.2 415.5C572.7 390.7 593.3 370.3 613.8 382.2C634.3 394 654.7 438 664.8 460L675 482L675 0L664.8 0C654.7 0 634.3 0 613.8 0C593.3 0 572.7 0 552.2 0C531.7 0 511.3 0 491 0C470.7 0 450.3 0 429.8 0C409.3 0 388.7 0 368.2 0C347.7 0 327.3 0 306.8 0C286.3 0 265.7 0 245.2 0C224.7 0 204.3 0 184 0C163.7 0 143.3 0 122.8 0C102.3 0 81.7 0 61.2 0C40.7 0 20.3 0 10.2 0L0 0Z" fill="#23013a"></path><path d="M0 408L10.2 416.5C20.3 425 40.7 442 61.2 442.8C81.7 443.7 102.3 428.3 122.8 420.5C143.3 412.7 163.7 412.3 184 410.5C204.3 408.7 224.7 405.3 245.2 407C265.7 408.7 286.3 415.3 306.8 421.7C327.3 428 347.7 434 368.2 413.7C388.7 393.3 409.3 346.7 429.8 324.7C450.3 302.7 470.7 305.3 491 307C511.3 308.7 531.7 309.3 552.2 335.2C572.7 361 593.3 412 613.8 420.8C634.3 429.7 654.7 396.3 664.8 379.7L675 363L675 0L664.8 0C654.7 0 634.3 0 613.8 0C593.3 0 572.7 0 552.2 0C531.7 0 511.3 0 491 0C470.7 0 450.3 0 429.8 0C409.3 0 388.7 0 368.2 0C347.7 0 327.3 0 306.8 0C286.3 0 265.7 0 245.2 0C224.7 0 204.3 0 184 0C163.7 0 143.3 0 122.8 0C102.3 0 81.7 0 61.2 0C40.7 0 20.3 0 10.2 0L0 0Z" fill="#1f0231"></path><path d="M0 319L10.2 328.2C20.3 337.3 40.7 355.7 61.2 347C81.7 338.3 102.3 302.7 122.8 285.7C143.3 268.7 163.7 270.3 184 262.7C204.3 255 224.7 238 245.2 243.2C265.7 248.3 286.3 275.7 306.8 285.8C327.3 296 347.7 289 368.2 275.5C388.7 262 409.3 242 429.8 245.3C450.3 248.7 470.7 275.3 491 285.7C511.3 296 531.7 290 552.2 274.5C572.7 259 593.3 234 613.8 228.7C634.3 223.3 654.7 237.7 664.8 244.8L675 252L675 0L664.8 0C654.7 0 634.3 0 613.8 0C593.3 0 572.7 0 552.2 0C531.7 0 511.3 0 491 0C470.7 0 450.3 0 429.8 0C409.3 0 388.7 0 368.2 0C347.7 0 327.3 0 306.8 0C286.3 0 265.7 0 245.2 0C224.7 0 204.3 0 184 0C163.7 0 143.3 0 122.8 0C102.3 0 81.7 0 61.2 0C40.7 0 20.3 0 10.2 0L0 0Z" fill="#1c0228"></path><path d="M0 225L10.2 218C20.3 211 40.7 197 61.2 188.7C81.7 180.3 102.3 177.7 122.8 175C143.3 172.3 163.7 169.7 184 185.8C204.3 202 224.7 237 245.2 241.3C265.7 245.7 286.3 219.3 306.8 206.2C327.3 193 347.7 193 368.2 195.5C388.7 198 409.3 203 429.8 197C450.3 191 470.7 174 491 169.8C511.3 165.7 531.7 174.3 552.2 179.2C572.7 184 593.3 185 613.8 194.2C634.3 203.3 654.7 220.7 664.8 229.3L675 238L675 0L664.8 0C654.7 0 634.3 0 613.8 0C593.3 0 572.7 0 552.2 0C531.7 0 511.3 0 491 0C470.7 0 450.3 0 429.8 0C409.3 0 388.7 0 368.2 0C347.7 0 327.3 0 306.8 0C286.3 0 265.7 0 245.2 0C224.7 0 204.3 0 184 0C163.7 0 143.3 0 122.8 0C102.3 0 81.7 0 61.2 0C40.7 0 20.3 0 10.2 0L0 0Z" fill="#180220"></path><path d="M0 126L10.2 135.7C20.3 145.3 40.7 164.7 61.2 167.5C81.7 170.3 102.3 156.7 122.8 162.3C143.3 168 163.7 193 184 194C204.3 195 224.7 172 245.2 168.2C265.7 164.3 286.3 179.7 306.8 190.5C327.3 201.3 347.7 207.7 368.2 198.5C388.7 189.3 409.3 164.7 429.8 156C450.3 147.3 470.7 154.7 491 155.7C511.3 156.7 531.7 151.3 552.2 153.8C572.7 156.3 593.3 166.7 613.8 158.8C634.3 151 654.7 125 664.8 112L675 99L675 0L664.8 0C654.7 0 634.3 0 613.8 0C593.3 0 572.7 0 552.2 0C531.7 0 511.3 0 491 0C470.7 0 450.3 0 429.8 0C409.3 0 388.7 0 368.2 0C347.7 0 327.3 0 306.8 0C286.3 0 265.7 0 245.2 0C224.7 0 204.3 0 184 0C163.7 0 143.3 0 122.8 0C102.3 0 81.7 0 61.2 0C40.7 0 20.3 0 10.2 0L0 0Z" fill="#110118"></path><path d="M0 46L10.2 50.5C20.3 55 40.7 64 61.2 63.5C81.7 63 102.3 53 122.8 52C143.3 51 163.7 59 184 61.3C204.3 63.7 224.7 60.3 245.2 66.3C265.7 72.3 286.3 87.7 306.8 98.7C327.3 109.7 347.7 116.3 368.2 121.3C388.7 126.3 409.3 129.7 429.8 120.5C450.3 111.3 470.7 89.7 491 79.3C511.3 69 531.7 70 552.2 73C572.7 76 593.3 81 613.8 82.3C634.3 83.7 654.7 81.3 664.8 80.2L675 79L675 0L664.8 0C654.7 0 634.3 0 613.8 0C593.3 0 572.7 0 552.2 0C531.7 0 511.3 0 491 0C470.7 0 450.3 0 429.8 0C409.3 0 388.7 0 368.2 0C347.7 0 327.3 0 306.8 0C286.3 0 265.7 0 245.2 0C224.7 0 204.3 0 184 0C163.7 0 143.3 0 122.8 0C102.3 0 81.7 0 61.2 0C40.7 0 20.3 0 10.2 0L0 0Z" fill="#08000d"></path></svg>